<svg width="24" height="24" viewBox="0 0 24 24" fill="none" xmlns="http://www.w3.org/2000/svg">
<g id="Icon Start">
<path id="Vector" d="M19.06 6.91494C18.9526 6.9983 17.0557 8.06715 17.0557 10.4438C17.0557 13.1929 19.4694 14.1654 19.5416 14.1895C19.5305 14.2487 19.1582 15.5214 18.269 16.8181C17.4762 17.9592 16.6481 19.0984 15.3885 19.0984C14.1288 19.0984 13.8046 18.3667 12.3505 18.3667C10.9334 18.3667 10.4295 19.1225 9.27728 19.1225C8.12506 19.1225 7.3211 18.0666 6.39674 16.7699C5.32603 15.2472 4.46094 12.8816 4.46094 10.6365C4.46094 7.03535 6.80242 5.12548 9.10685 5.12548C10.3313 5.12548 11.352 5.92944 12.1208 5.92944C12.8525 5.92944 13.9936 5.07732 15.3866 5.07732C15.9146 5.07732 17.8115 5.12548 19.06 6.91494ZM14.7253 3.55276C15.3014 2.86921 15.7089 1.92076 15.7089 0.972316C15.7089 0.840793 15.6978 0.707417 15.6737 0.599976C14.7364 0.635172 13.6212 1.22425 12.9488 2.00412C12.4209 2.60431 11.9281 3.55276 11.9281 4.51418C11.9281 4.65867 11.9522 4.80316 11.9633 4.84947C12.0226 4.86058 12.1189 4.87355 12.2152 4.87355C13.0563 4.87355 14.114 4.31041 14.7253 3.55276Z" fill="black"/>
</g>
</svg>