<svg width="48" height="49" viewBox="0 0 48 49" fill="none" xmlns="http://www.w3.org/2000/svg">
    <path d="M34.6137 35.497C35.0874 33.5301 35.3818 31.5243 35.4932 29.5043C35.5365 28.6897 35.5365 27.8734 35.4932 27.0588C38.335 27.3101 42.3559 30.0842 42.3559 31.5437C42.3559 33.0033 39.8138 31.8917 34.6233 35.497H34.6137ZM20.492 15.4503C18.5589 16.3202 15.7655 14.1648 14.3736 11.1297C12.9818 8.09468 13.6487 5.52359 15.5335 4.65368C17.4183 3.78376 19.8251 4.96298 21.217 7.98836C22.6088 11.0137 22.3769 14.5804 20.492 15.4503ZM14.8472 18.147C13.8807 19.2876 11.4352 18.7946 9.67608 17.2964C7.91692 15.7983 7.60762 13.9424 8.58386 12.8019C9.5601 11.6613 11.4836 11.6613 13.1944 13.1692C14.9052 14.677 15.8235 17.0355 14.8472 18.147ZM44.811 17.1128C40.6161 20.2252 35.1453 21.0661 33.2121 18.495C31.279 15.9239 33.6857 10.8881 37.871 7.76604C38.219 7.51473 38.5669 7.28275 38.9052 7.07011C37.0604 5.38345 34.9552 4.00605 32.6709 2.99117C33.4492 4.66976 33.6134 6.56836 33.1348 8.35565C32.2649 12.3669 29.4135 15.7016 26.9004 15.1217C24.3873 14.5417 23.1694 10.3565 24.0007 6.34518C24.1485 5.33087 24.5059 4.35844 25.05 3.48978C25.5942 2.62112 26.3132 1.87526 27.1614 1.29967C25.8622 1.07389 24.546 0.960702 23.2274 0.961368C19.0817 0.961473 15.0118 2.07256 11.4411 4.17901C7.87047 6.28546 4.92953 9.3103 2.92433 12.9388C0.919133 16.5673 -0.0770512 20.6669 0.0394346 24.8109C0.15592 28.955 1.38082 32.9921 3.58668 36.5023C7.45297 25.2127 16.6934 16.4169 25.5375 17.3544C31.3853 17.973 34.4783 22.5449 34.0917 29.6203C33.7051 36.5216 30.6604 43.2296 26.5814 47.1152C29.9452 46.625 33.1602 45.4015 35.9988 43.5313C38.8374 41.6611 41.2303 39.1899 43.0081 36.2926C44.786 33.3952 45.9054 30.1426 46.2871 26.7648C46.6688 23.3869 46.3035 19.9665 45.217 16.7455L44.7917 17.0741" fill="#DD0031"/>
    <path d="M26.5627 25.7636C27.8096 25.7636 27.8386 26.8848 27.8289 27.3778C27.8289 29.4656 25.2385 32.027 23.9627 30.0648C23.2957 28.557 24.9292 25.8119 26.5144 25.7636H26.5627ZM12.3058 42.002C12.6634 36.7342 15.6501 33.0226 17.1387 32.5489C17.3585 32.4663 17.5954 32.4391 17.8282 32.4697C18.0611 32.5002 18.2829 32.5877 18.474 32.7243C18.665 32.8609 18.8195 33.0425 18.9238 33.253C19.028 33.4634 19.0789 33.6963 19.0718 33.9311C18.9171 35.8643 16.4427 37.2368 16.0368 42.0987C15.8434 44.3411 16.6264 46.9315 19.1105 47.0185C24.4943 47.3182 29.5881 37.0241 29.9747 29.9682C30.313 23.8788 28.1093 21.0757 24.9196 20.7664C17.2933 20.0221 9.35775 30.1228 6.55469 40.5135C8.25444 42.2325 10.2109 43.677 12.3541 44.7954C12.1925 43.8736 12.1471 42.9351 12.2188 42.002" fill="#DD0031"/>
    <path d="M44.3087 48.333C43.7719 48.3311 43.2477 48.1702 42.8024 47.8706C42.357 47.571 42.0104 47.1461 41.8063 46.6497C41.6022 46.1532 41.5498 45.6074 41.6557 45.0812C41.7616 44.555 42.021 44.0719 42.4012 43.693C42.7815 43.3141 43.2654 43.0564 43.792 42.9524C44.3186 42.8484 44.8642 42.9027 45.36 43.1086C45.8557 43.3144 46.2793 43.6626 46.5774 44.109C46.8754 44.5555 47.0344 45.0802 47.0344 45.617C47.0344 45.9745 46.9639 46.3285 46.8268 46.6586C46.6897 46.9888 46.4887 47.2886 46.2355 47.541C45.9823 47.7933 45.6817 47.9931 45.3511 48.1291C45.0204 48.265 44.6662 48.3343 44.3087 48.333ZM44.3087 42.234C43.6392 42.232 42.9842 42.4288 42.4266 42.7994C41.869 43.17 41.4338 43.6976 41.1763 44.3156C40.9188 44.9336 40.8504 45.6141 40.9798 46.271C41.1093 46.9279 41.4307 47.5316 41.9035 48.0057C42.3762 48.4798 42.979 48.8029 43.6355 48.9343C44.292 49.0656 44.9727 48.9991 45.5914 48.7434C46.2101 48.4876 46.7391 48.054 47.1112 47.4975C47.4834 46.9409 47.682 46.2865 47.682 45.617C47.6795 44.7222 47.3236 43.8646 46.6918 43.231C46.06 42.5974 45.2035 42.2391 44.3087 42.234Z" fill="#DD0031"/>
    <path d="M43.7388 46.1583H44.1641C44.2786 46.1652 44.392 46.1847 44.5023 46.2163C44.5647 46.2379 44.6218 46.2722 44.6701 46.3172C44.7183 46.3621 44.7567 46.4166 44.7827 46.4772C44.8262 46.618 44.8458 46.765 44.8407 46.9122C44.8444 47.0748 44.8638 47.2367 44.8986 47.3955H45.8652V47.2988C45.8566 47.2639 45.8566 47.2274 45.8652 47.1925C45.8652 47.1925 45.8652 47.1249 45.8652 47.0862V46.7769C45.8783 46.6295 45.8553 46.4811 45.798 46.3447C45.7407 46.2082 45.651 46.0878 45.5366 45.994C45.3758 45.8824 45.1898 45.8127 44.9953 45.791C45.233 45.7749 45.4611 45.691 45.6526 45.5493C45.7474 45.4741 45.8218 45.3762 45.8691 45.2648C45.9163 45.1534 45.9349 45.0319 45.9232 44.9114C45.9343 44.7381 45.8921 44.5656 45.8022 44.417C45.7124 44.2684 45.5792 44.1508 45.4206 44.0802C45.1844 43.967 44.9282 43.9013 44.6667 43.8868H42.8398V47.4342H43.8064L43.7388 46.1583ZM44.7053 45.3947C44.5411 45.4887 44.3529 45.5324 44.1641 45.5204H43.7774V44.5344H43.9611C44.1536 44.5256 44.3462 44.5485 44.5313 44.6021C44.6207 44.6258 44.6996 44.6785 44.7556 44.752C44.8117 44.8255 44.8416 44.9156 44.8407 45.0081C44.8492 45.0884 44.8357 45.1695 44.8017 45.2427C44.7676 45.3159 44.7143 45.3785 44.6473 45.4237" fill="#DD0031"/>
</svg>